<svg xmlns="http://www.w3.org/2000/svg" width="512" height="512" viewBox="0 0 512 512">
  <defs>
    <linearGradient id="coat" x1="0" x2="1">
      <stop offset="0" stop-color="#0b1b2a"/>
      <stop offset="1" stop-color="#102c3a"/>
    </linearGradient>
    <linearGradient id="accent" x1="0" x2="1">
      <stop offset="0" stop-color="#39ffb6"/>
      <stop offset="1" stop-color="#00c2ff"/>
    </linearGradient>
    <filter id="softGlow" x="-30%" y="-30%" width="160%" height="160%">
      <feGaussianBlur stdDeviation="6" result="b"/>
      <feColorMatrix in="b" type="matrix"
        values="0 0 0 0 0.2  0 0 0 0 1  0 0 0 0 0.72  0 0 0 0.45 0"/>
      <feMerge>
        <feMergeNode/>
        <feMergeNode in="SourceGraphic"/>
      </feMerge>
    </filter>
  </defs>

  <rect width="512" height="512" fill="none"/>

  <!-- silhouette -->
  <g filter="url(#softGlow)">
    <!-- head -->
    <circle cx="256" cy="142" r="68" fill="#0a0f14" stroke="url(#accent)" stroke-width="6"/>
    <!-- visor -->
    <path d="M202,142 C220,112 292,112 310,142 C292,178 220,178 202,142 Z"
          fill="#091a22" stroke="#39ffb6" stroke-opacity="0.7" stroke-width="4"/>
    <!-- body / coat -->
    <path d="M156,458 C162,330 192,250 256,236 C320,250 350,330 356,458 Z"
          fill="url(#coat)" stroke="url(#accent)" stroke-opacity="0.7" stroke-width="6"/>
    <!-- lapels -->
    <path d="M256,236 L206,300 L256,458 L306,300 Z" fill="#07121a" opacity="0.9"/>
    <!-- tie -->
    <path d="M256,260 L240,290 L256,320 L272,290 Z" fill="#39ffb6" opacity="0.85"/>
    <path d="M256,320 L244,458 L268,458 Z" fill="#00c2ff" opacity="0.55"/>
    <!-- badge -->
    <rect x="186" y="330" width="64" height="44" rx="10" fill="#0b1620" stroke="#39ffb6" stroke-opacity="0.7" stroke-width="4"/>
    <path d="M196,360 L212,344 L230,372 L246,336" stroke="url(#accent)" stroke-width="5" fill="none"/>
  </g>
</svg>
