<svg xmlns="http://www.w3.org/2000/svg" width="1200" height="600" viewBox="0 0 1200 600">
  <defs>
    <linearGradient id="sky3" x1="0" y1="0" x2="0" y2="1">
      <stop offset="0%" stop-color="#1a237e"/>
      <stop offset="70%" stop-color="#283593"/>
      <stop offset="100%" stop-color="#303f9f"/>
    </linearGradient>
  </defs>
  <rect width="1200" height="600" fill="url(#sky3)"/>
  <!-- Stars -->
  <g fill="white" opacity="0.6">
    <circle cx="80" cy="35" r="1.5"/><circle cx="200" cy="55" r="1"/><circle cx="350" cy="25" r="2"/>
    <circle cx="500" cy="45" r="1.5"/><circle cx="650" cy="20" r="1"/><circle cx="800" cy="50" r="2"/>
    <circle cx="950" cy="35" r="1.5"/><circle cx="1080" cy="55" r="1"/><circle cx="1150" cy="28" r="2"/>
  </g>
  <!-- Ground -->
  <rect x="0" y="460" width="1200" height="140" fill="#1a1a2e"/>
  <rect x="0" y="460" width="1200" height="8" fill="#263238"/>
  <!-- Road -->
  <rect x="0" y="500" width="1200" height="60" fill="#212121"/>
  <g fill="#ffd700" opacity="0.6">
    <rect x="0" y="527" width="100" height="5"/><rect x="150" y="527" width="100" height="5"/>
    <rect x="300" y="527" width="100" height="5"/><rect x="450" y="527" width="100" height="5"/>
    <rect x="600" y="527" width="100" height="5"/><rect x="750" y="527" width="100" height="5"/>
    <rect x="900" y="527" width="100" height="5"/><rect x="1050" y="527" width="100" height="5"/>
  </g>
  <!-- Sidewalk -->
  <rect x="0" y="468" width="1200" height="32" fill="#37474f"/>
  <!-- Office Building 1 -->
  <g>
    <rect x="30" y="80" width="160" height="380" fill="#1565C0"/>
    <g fill="#FFF9C4" opacity="0.7">
      <rect x="42" y="95" width="18" height="14"/><rect x="70" y="95" width="18" height="14"/><rect x="98" y="95" width="18" height="14"/><rect x="126" y="95" width="18" height="14"/><rect x="154" y="95" width="18" height="14"/>
      <rect x="42" y="122" width="18" height="14"/><rect x="98" y="122" width="18" height="14"/><rect x="154" y="122" width="18" height="14"/>
      <rect x="70" y="149" width="18" height="14"/><rect x="126" y="149" width="18" height="14"/>
      <rect x="42" y="176" width="18" height="14"/><rect x="70" y="176" width="18" height="14"/><rect x="98" y="176" width="18" height="14"/>
    </g>
    <rect x="30" y="80" width="160" height="24" fill="#0D47A1"/>
    <text x="110" y="97" fill="#ffd700" font-size="11" text-anchor="middle" font-family="Arial" font-weight="bold">CORP HQ</text>
    <rect x="65" y="440" width="30" height="20" fill="#0D47A1" rx="2"/>
    <rect x="105" y="440" width="30" height="20" fill="#0D47A1" rx="2"/>
  </g>
  <!-- Retail strip -->
  <g>
    <rect x="220" y="280" width="240" height="180" fill="#37474f"/>
    <rect x="220" y="280" width="240" height="20" fill="#263238"/>
    <text x="340" y="295" fill="#ffd700" font-size="11" text-anchor="middle" font-family="Arial" font-weight="bold">COMMERCIAL PLAZA</text>
    <!-- Shop 1 -->
    <rect x="225" y="305" width="70" height="155" fill="#4CAF50"/>
    <rect x="230" y="315" width="60" height="60" fill="#B2EBF2" opacity="0.8"/>
    <rect x="250" y="385" width="30" height="75" fill="#2E7D32"/>
    <text x="260" y="340" fill="white" font-size="9" text-anchor="middle" font-family="Arial">MARKET</text>
    <!-- Shop 2 -->
    <rect x="300" y="305" width="70" height="155" fill="#FF5722"/>
    <rect x="305" y="315" width="60" height="60" fill="#FFE082" opacity="0.8"/>
    <rect x="320" y="385" width="35" height="75" fill="#BF360C"/>
    <text x="335" y="340" fill="white" font-size="9" text-anchor="middle" font-family="Arial">CAFE</text>
    <!-- Shop 3 -->
    <rect x="375" y="305" width="80" height="155" fill="#9C27B0"/>
    <rect x="380" y="315" width="70" height="60" fill="#CE93D8" opacity="0.8"/>
    <rect x="398" y="385" width="44" height="75" fill="#6A1B9A"/>
    <text x="415" y="340" fill="white" font-size="9" text-anchor="middle" font-family="Arial">PHARMACY</text>
  </g>
  <!-- Office Tower 2 -->
  <g>
    <rect x="490" y="50" width="130" height="410" fill="#0277BD"/>
    <rect x="490" y="50" width="130" height="22" fill="#01579B"/>
    <text x="555" y="66" fill="white" font-size="10" text-anchor="middle" font-family="Arial" font-weight="bold">TOWER 2</text>
    <g fill="#80DEEA" opacity="0.6">
      <rect x="502" y="82" width="16" height="13"/><rect x="526" y="82" width="16" height="13"/><rect x="550" y="82" width="16" height="13"/><rect x="574" y="82" width="16" height="13"/><rect x="598" y="82" width="16" height="13"/>
      <rect x="502" y="108" width="16" height="13"/><rect x="550" y="108" width="16" height="13"/><rect x="598" y="108" width="16" height="13"/>
      <rect x="526" y="134" width="16" height="13"/><rect x="574" y="134" width="16" height="13"/>
    </g>
    <rect x="535" y="440" width="40" height="20" fill="#01579B"/>
    <!-- Antenna -->
    <rect x="553" y="30" width="4" height="22" fill="#aaa"/>
    <circle cx="555" cy="28" r="5" fill="#ff4444"/>
  </g>
  <!-- Warehouse -->
  <g>
    <rect x="650" y="250" width="220" height="210" fill="#455A64"/>
    <rect x="650" y="250" width="220" height="18" fill="#37474F"/>
    <text x="760" y="264" fill="white" font-size="10" text-anchor="middle" font-family="Arial" font-weight="bold">INDUSTRIAL WAREHOUSE</text>
    <!-- Doors -->
    <rect x="660" y="330" width="80" height="130" fill="#607D8B"/>
    <rect x="750" y="330" width="80" height="130" fill="#607D8B"/>
    <rect x="836" y="330" width="28" height="130" fill="#546E7A"/>
    <!-- Windows at top -->
    <g fill="#B2EBF2" opacity="0.6">
      <rect x="660" y="275" width="50" height="40"/><rect x="720" y="275" width="50" height="40"/><rect x="780" y="275" width="50" height="40"/>
    </g>
    <!-- Dock -->
    <rect x="660" y="454" width="80" height="6" fill="#263238"/>
    <rect x="750" y="454" width="80" height="6" fill="#263238"/>
  </g>
  <!-- Medical Office -->
  <g>
    <rect x="900" y="200" width="140" height="260" fill="#f5f5f5"/>
    <rect x="900" y="200" width="140" height="22" fill="#1565C0"/>
    <text x="970" y="215" fill="white" font-size="10" text-anchor="middle" font-family="Arial" font-weight="bold">MEDICAL CENTER</text>
    <!-- Cross symbol -->
    <rect x="950" y="230" width="40" height="10" fill="#E53935"/>
    <rect x="966" y="220" width="10" height="30" fill="#E53935"/>
    <g fill="#B3E5FC" opacity="0.7">
      <rect x="910" y="270" width="28" height="24"/><rect x="948" y="270" width="28" height="24"/><rect x="986" y="270" width="28" height="24"/>
      <rect x="910" y="308" width="28" height="24"/><rect x="986" y="308" width="28" height="24"/>
    </g>
    <rect x="938" y="400" width="64" height="60" fill="#1565C0"/>
  </g>
  <!-- Office Tower 3 -->
  <g>
    <rect x="1060" y="110" width="120" height="350" fill="#1B5E20"/>
    <rect x="1060" y="110" width="120" height="22" fill="#1a237e"/>
    <text x="1120" y="126" fill="#ffd700" font-size="10" text-anchor="middle" font-family="Arial" font-weight="bold">MARCUS CORP</text>
    <g fill="#C8E6C9" opacity="0.5">
      <rect x="1072" y="142" width="16" height="12"/><rect x="1098" y="142" width="16" height="12"/><rect x="1124" y="142" width="16" height="12"/><rect x="1150" y="142" width="16" height="12"/>
      <rect x="1072" y="166" width="16" height="12"/><rect x="1124" y="166" width="16" height="12"/>
      <rect x="1098" y="190" width="16" height="12"/><rect x="1150" y="190" width="16" height="12"/>
    </g>
    <rect x="1093" y="442" width="54" height="18" fill="#1a237e"/>
    <rect x="1109" y="88" width="4" height="24" fill="#888"/>
    <circle cx="1111" cy="86" r="5" fill="#ffd700"/>
  </g>
  <!-- Street lamps -->
  <g stroke="#ccc" stroke-width="2" fill="none">
    <line x1="200" y1="468" x2="200" y2="400"/><line x1="200" y1="400" x2="218" y2="396"/>
    <circle cx="220" cy="395" r="5" fill="#fffde7" opacity="0.9"/>
    <line x1="640" y1="468" x2="640" y2="400"/><line x1="640" y1="400" x2="658" y2="396"/>
    <circle cx="660" cy="395" r="5" fill="#fffde7" opacity="0.9"/>
    <line x1="1040" y1="468" x2="1040" y2="400"/><line x1="1040" y1="400" x2="1058" y2="396"/>
    <circle cx="1060" cy="395" r="5" fill="#fffde7" opacity="0.9"/>
  </g>
</svg>
