<svg xmlns="http://www.w3.org/2000/svg" width="1200" height="600" viewBox="0 0 1200 600">
  <defs>
    <linearGradient id="sky" x1="0" y1="0" x2="0" y2="1">
      <stop offset="0%" stop-color="#060a1e"/>
      <stop offset="55%" stop-color="#0d1a40"/>
      <stop offset="100%" stop-color="#1a2a5e"/>
    </linearGradient>
    <linearGradient id="sidewalk" x1="0" y1="0" x2="0" y2="1">
      <stop offset="0%" stop-color="#2a2a3e"/>
      <stop offset="100%" stop-color="#1a1a2e"/>
    </linearGradient>
    <linearGradient id="road" x1="0" y1="0" x2="0" y2="1">
      <stop offset="0%" stop-color="#1a1a1a"/>
      <stop offset="100%" stop-color="#0d0d0d"/>
    </linearGradient>
    <!-- Window glow filter -->
    <filter id="glow">
      <feGaussianBlur stdDeviation="2" result="blur"/>
      <feMerge><feMergeNode in="blur"/><feMergeNode in="SourceGraphic"/></feMerge>
    </filter>
  </defs>

  <!-- Sky gradient -->
  <rect width="1200" height="600" fill="url(#sky)"/>

  <!-- Stars - scattered -->
  <g fill="white">
    <circle cx="45" cy="30" r="1.5" opacity="0.9"/>
    <circle cx="120" cy="18" r="1" opacity="0.7"/>
    <circle cx="195" cy="42" r="2" opacity="0.8"/>
    <circle cx="290" cy="22" r="1.5" opacity="0.85"/>
    <circle cx="410" cy="38" r="1" opacity="0.7"/>
    <circle cx="530" cy="15" r="2" opacity="0.9"/>
    <circle cx="660" cy="44" r="1.5" opacity="0.75"/>
    <circle cx="760" cy="28" r="1" opacity="0.8"/>
    <circle cx="880" cy="20" r="2" opacity="0.85"/>
    <circle cx="980" cy="48" r="1.5" opacity="0.7"/>
    <circle cx="1090" cy="25" r="1" opacity="0.9"/>
    <circle cx="1160" cy="40" r="2" opacity="0.75"/>
    <circle cx="75" cy="80" r="1" opacity="0.6"/>
    <circle cx="240" cy="72" r="1.5" opacity="0.65"/>
    <circle cx="460" cy="65" r="1" opacity="0.7"/>
    <circle cx="610" cy="80" r="2" opacity="0.6"/>
    <circle cx="840" cy="70" r="1.5" opacity="0.65"/>
    <circle cx="1040" cy="85" r="1" opacity="0.7"/>
    <circle cx="350" cy="55" r="1" opacity="0.5"/>
    <circle cx="720" cy="60" r="1.5" opacity="0.55"/>
    <circle cx="950" cy="55" r="1" opacity="0.6"/>
  </g>

  <!-- Moon - top right -->
  <circle cx="1100" cy="65" r="34" fill="#fffde7" opacity="0.92"/>
  <circle cx="1114" cy="56" r="29" fill="#0d1a40"/>

  <!-- === BACKGROUND BUILDINGS (far, dark silhouette) === -->
  <g fill="#08112a" opacity="0.9">
    <rect x="0" y="200" width="55" height="400"/>
    <rect x="65" y="240" width="45" height="360"/>
    <rect x="120" y="180" width="70" height="420"/>
    <rect x="200" y="220" width="50" height="380"/>
    <rect x="260" y="195" width="65" height="405"/>
    <rect x="335" y="215" width="80" height="385"/>
    <rect x="425" y="170" width="60" height="430"/>
    <rect x="495" y="230" width="45" height="370"/>
    <rect x="550" y="185" width="75" height="415"/>
    <rect x="635" y="210" width="55" height="390"/>
    <rect x="700" y="190" width="70" height="410"/>
    <rect x="780" y="165" width="85" height="435"/>
    <rect x="875" y="205" width="50" height="395"/>
    <rect x="935" y="180" width="75" height="420"/>
    <rect x="1020" y="210" width="55" height="390"/>
    <rect x="1085" y="175" width="65" height="425"/>
    <rect x="1160" y="195" width="40" height="405"/>
  </g>

  <!-- === MID-GROUND BUILDINGS (main buildings with signs) === -->
  <!-- Ground baseline for buildings is y=490 (sidewalk top) -->
  <!-- Buildings anchor to y=490, extending upward -->

  <!-- BUILDING A - Tall office tower, far left. NPC 1 (Sarah) stands here ~x=130 -->
  <rect x="30" y="110" width="100" height="380" fill="#152040"/>
  <!-- Windows A -->
  <g fill="#ffd700" opacity="0.55">
    <rect x="42" y="125" width="13" height="10"/><rect x="63" y="125" width="13" height="10"/>
    <rect x="84" y="125" width="13" height="10"/><rect x="105" y="125" width="10" height="10"/>
    <rect x="42" y="148" width="13" height="10"/><rect x="84" y="148" width="13" height="10"/>
    <rect x="63" y="170" width="13" height="10"/><rect x="105" y="170" width="10" height="10"/>
    <rect x="42" y="193" width="13" height="10"/><rect x="63" y="193" width="13" height="10"/>
    <rect x="84" y="215" width="13" height="10"/><rect x="105" y="215" width="10" height="10"/>
    <rect x="42" y="237" width="13" height="10"/><rect x="84" y="237" width="13" height="10"/>
  </g>
  <!-- Antenna A -->
  <rect x="78" y="96" width="4" height="16" fill="#888"/>
  <circle cx="80" cy="93" r="5" fill="#ff4444" opacity="0.9"/>

  <!-- BUILDING B - Medium blue building. NPC 2 (Alex) stands ~x=260 -->
  <rect x="165" y="145" width="115" height="345" fill="#1a2858"/>
  <!-- Windows B - blue tinted -->
  <g fill="#64b5f6" opacity="0.5">
    <rect x="177" y="160" width="14" height="12"/><rect x="201" y="160" width="14" height="12"/>
    <rect x="225" y="160" width="14" height="12"/><rect x="249" y="160" width="13" height="12"/>
    <rect x="177" y="186" width="14" height="12"/><rect x="225" y="186" width="14" height="12"/>
    <rect x="249" y="186" width="13" height="12"/>
    <rect x="201" y="212" width="14" height="12"/><rect x="249" y="212" width="13" height="12"/>
    <rect x="177" y="238" width="14" height="12"/><rect x="225" y="238" width="14" height="12"/>
    <rect x="201" y="264" width="14" height="12"/>
  </g>
  <!-- Sign B - First National Bank -->
  <rect x="165" y="146" width="115" height="22" fill="#0a1428"/>
  <text x="222" y="162" fill="#ffd700" font-size="11" text-anchor="middle" font-family="Arial,sans-serif" font-weight="bold">FIRST NATIONAL</text>

  <!-- BUILDING C - Skyscraper. NPC 3 (Marcus) stands ~x=400 -->
  <rect x="320" y="75" width="90" height="415" fill="#101e38"/>
  <!-- Top spire -->
  <rect x="348" y="53" width="34" height="24" fill="#101e38"/>
  <rect x="356" y="38" width="18" height="17" fill="#101e38"/>
  <rect x="363" y="22" width="4" height="18" fill="#777"/>
  <!-- Windows C - green -->
  <g fill="#4eff91" opacity="0.4">
    <rect x="330" y="88" width="14" height="10"/><rect x="354" y="88" width="14" height="10"/>
    <rect x="378" y="88" width="14" height="10"/>
    <rect x="330" y="110" width="14" height="10"/><rect x="378" y="110" width="14" height="10"/>
    <rect x="354" y="132" width="14" height="10"/><rect x="378" y="132" width="14" height="10"/>
    <rect x="330" y="154" width="14" height="10"/><rect x="354" y="154" width="14" height="10"/>
    <rect x="330" y="176" width="14" height="10"/><rect x="378" y="176" width="14" height="10"/>
    <rect x="354" y="198" width="14" height="10"/>
  </g>

  <!-- BUILDING D - Wide glass tower. NPC 4 (Manager) stands ~x=545 -->
  <rect x="440" y="120" width="115" height="370" fill="#162040"/>
  <!-- Helipad on roof -->
  <circle cx="497" cy="117" r="18" fill="#1a3a5c" stroke="#ffd700" stroke-width="2" opacity="0.85"/>
  <text x="497" y="121" fill="#ffd700" font-size="12" text-anchor="middle" font-family="Arial,sans-serif">H</text>
  <!-- Windows D - amber -->
  <g fill="#ffd700" opacity="0.4">
    <rect x="452" y="135" width="16" height="12"/><rect x="478" y="135" width="16" height="12"/>
    <rect x="504" y="135" width="16" height="12"/><rect x="530" y="135" width="12" height="12"/>
    <rect x="452" y="160" width="16" height="12"/><rect x="504" y="160" width="16" height="12"/>
    <rect x="478" y="185" width="16" height="12"/><rect x="530" y="185" width="12" height="12"/>
    <rect x="452" y="210" width="16" height="12"/><rect x="478" y="210" width="16" height="12"/>
    <rect x="504" y="235" width="16" height="12"/>
  </g>

  <!-- BUILDING E - Wide real estate market building. Banner at top. Center ~x=665 -->
  <rect x="580" y="148" width="170" height="342" fill="#14203a"/>
  <!-- Sign E - Real Estate Market -->
  <rect x="580" y="148" width="170" height="26" fill="#091428"/>
  <text x="665" y="166" fill="#4eff91" font-size="12" text-anchor="middle" font-family="Arial,sans-serif" font-weight="bold">REAL ESTATE MARKET</text>
  <!-- Windows E - orange -->
  <g fill="#ff9800" opacity="0.4">
    <rect x="592" y="185" width="18" height="14"/><rect x="622" y="185" width="18" height="14"/>
    <rect x="652" y="185" width="18" height="14"/><rect x="682" y="185" width="18" height="14"/>
    <rect x="714" y="185" width="18" height="14"/>
    <rect x="592" y="213" width="18" height="14"/><rect x="652" y="213" width="18" height="14"/>
    <rect x="714" y="213" width="18" height="14"/>
    <rect x="622" y="241" width="18" height="14"/><rect x="682" y="241" width="18" height="14"/>
  </g>

  <!-- BUILDING F - Luxury tower. NPC 5 (Victoria) stands ~x=835 -->
  <rect x="775" y="95" width="100" height="395" fill="#101c38"/>
  <!-- Luxury spire -->
  <rect x="793" y="75" width="64" height="22" fill="#101c38"/>
  <rect x="808" y="60" width="4" height="17" fill="#777"/>
  <circle cx="810" cy="57" r="6" fill="#ffd700" opacity="0.9"/>
  <!-- Windows F - gold/luxury -->
  <g fill="#ffd700" opacity="0.5">
    <rect x="787" y="110" width="14" height="11"/><rect x="811" y="110" width="14" height="11"/>
    <rect x="835" y="110" width="14" height="11"/>
    <rect x="787" y="134" width="14" height="11"/><rect x="835" y="134" width="14" height="11"/>
    <rect x="811" y="158" width="14" height="11"/><rect x="835" y="158" width="14" height="11"/>
    <rect x="787" y="182" width="14" height="11"/><rect x="811" y="182" width="14" height="11"/>
    <rect x="787" y="206" width="14" height="11"/>
  </g>
  <!-- Victoria sign -->
  <text x="825" y="92" fill="#ffd700" font-size="10" text-anchor="middle" font-family="Arial,sans-serif" font-weight="bold">VICTORIA</text>

  <!-- BUILDING G - Bank tall -->
  <rect x="905" y="90" width="105" height="400" fill="#0d1c3a"/>
  <!-- Windows G -->
  <g fill="#64b5f6" opacity="0.45">
    <rect x="917" y="105" width="15" height="11"/><rect x="942" y="105" width="15" height="11"/>
    <rect x="968" y="105" width="15" height="11"/>
    <rect x="917" y="129" width="15" height="11"/><rect x="968" y="129" width="15" height="11"/>
    <rect x="942" y="153" width="15" height="11"/><rect x="968" y="153" width="15" height="11"/>
    <rect x="917" y="177" width="15" height="11"/><rect x="942" y="177" width="15" height="11"/>
  </g>

  <!-- BUILDING H - Far right tower -->
  <rect x="1030" y="125" width="95" height="365" fill="#121c36"/>
  <!-- Windows H -->
  <g fill="#ff9800" opacity="0.4">
    <rect x="1042" y="140" width="15" height="12"/><rect x="1067" y="140" width="15" height="12"/>
    <rect x="1093" y="140" width="14" height="12"/>
    <rect x="1042" y="165" width="15" height="12"/><rect x="1093" y="165" width="14" height="12"/>
    <rect x="1067" y="190" width="15" height="12"/><rect x="1093" y="190" width="14" height="12"/>
  </g>

  <!-- BUILDING I - Far right edge -->
  <rect x="1145" y="155" width="55" height="335" fill="#101a30"/>
  <g fill="#4eff91" opacity="0.35">
    <rect x="1157" y="170" width="12" height="10"/>
    <rect x="1178" y="170" width="12" height="10"/>
    <rect x="1157" y="193" width="12" height="10"/>
    <rect x="1178" y="215" width="12" height="10"/>
  </g>

  <!-- === SIDEWALK (characters walk here, y=490 to y=540) === -->
  <rect x="0" y="490" width="1200" height="50" fill="url(#sidewalk)"/>
  <!-- Sidewalk edge line -->
  <rect x="0" y="490" width="1200" height="2" fill="#2a3060" opacity="0.8"/>
  <!-- Sidewalk cracks / tiles -->
  <g stroke="#1e1e2e" stroke-width="1" opacity="0.4">
    <line x1="0" y1="515" x2="1200" y2="515"/>
    <line x1="150" y1="490" x2="150" y2="540"/>
    <line x1="300" y1="490" x2="300" y2="540"/>
    <line x1="450" y1="490" x2="450" y2="540"/>
    <line x1="600" y1="490" x2="600" y2="540"/>
    <line x1="750" y1="490" x2="750" y2="540"/>
    <line x1="900" y1="490" x2="900" y2="540"/>
    <line x1="1050" y1="490" x2="1050" y2="540"/>
  </g>

  <!-- === ROAD (y=540 to y=600) === -->
  <rect x="0" y="540" width="1200" height="60" fill="url(#road)"/>
  <!-- Curb -->
  <rect x="0" y="540" width="1200" height="4" fill="#333"/>
  <!-- Road center lines -->
  <g fill="#ffd700" opacity="0.55">
    <rect x="0" y="565" width="90" height="5" rx="2"/>
    <rect x="130" y="565" width="90" height="5" rx="2"/>
    <rect x="260" y="565" width="90" height="5" rx="2"/>
    <rect x="390" y="565" width="90" height="5" rx="2"/>
    <rect x="520" y="565" width="90" height="5" rx="2"/>
    <rect x="650" y="565" width="90" height="5" rx="2"/>
    <rect x="780" y="565" width="90" height="5" rx="2"/>
    <rect x="910" y="565" width="90" height="5" rx="2"/>
    <rect x="1040" y="565" width="90" height="5" rx="2"/>
    <rect x="1110" y="565" width="90" height="5" rx="2"/>
  </g>
  <!-- White road edge lines -->
  <rect x="0" y="542" width="1200" height="2" fill="#fff" opacity="0.15"/>
  <rect x="0" y="596" width="1200" height="2" fill="#fff" opacity="0.1"/>

  <!-- === STREET LAMPS === -->
  <!-- 5 lamps evenly spaced, poles at bottom of sidewalk -->
  <g>
    <!-- Lamp 1 @ x=120 -->
    <rect x="119" y="420" width="4" height="72" fill="#8a8a9a"/>
    <path d="M121 420 Q121 406 137 404" stroke="#8a8a9a" stroke-width="3" fill="none"/>
    <ellipse cx="138" cy="403" rx="7" ry="5" fill="#fffde7" opacity="0.9" filter="url(#glow)"/>
    <ellipse cx="138" cy="403" rx="14" ry="8" fill="#ffd700" opacity="0.12"/>

    <!-- Lamp 2 @ x=340 -->
    <rect x="339" y="420" width="4" height="72" fill="#8a8a9a"/>
    <path d="M341 420 Q341 406 357 404" stroke="#8a8a9a" stroke-width="3" fill="none"/>
    <ellipse cx="358" cy="403" rx="7" ry="5" fill="#fffde7" opacity="0.9" filter="url(#glow)"/>
    <ellipse cx="358" cy="403" rx="14" ry="8" fill="#ffd700" opacity="0.12"/>

    <!-- Lamp 3 @ x=560 -->
    <rect x="559" y="420" width="4" height="72" fill="#8a8a9a"/>
    <path d="M561 420 Q561 406 577 404" stroke="#8a8a9a" stroke-width="3" fill="none"/>
    <ellipse cx="578" cy="403" rx="7" ry="5" fill="#fffde7" opacity="0.9" filter="url(#glow)"/>
    <ellipse cx="578" cy="403" rx="14" ry="8" fill="#ffd700" opacity="0.12"/>

    <!-- Lamp 4 @ x=780 -->
    <rect x="779" y="420" width="4" height="72" fill="#8a8a9a"/>
    <path d="M781 420 Q781 406 797 404" stroke="#8a8a9a" stroke-width="3" fill="none"/>
    <ellipse cx="798" cy="403" rx="7" ry="5" fill="#fffde7" opacity="0.9" filter="url(#glow)"/>
    <ellipse cx="798" cy="403" rx="14" ry="8" fill="#ffd700" opacity="0.12"/>

    <!-- Lamp 5 @ x=1000 -->
    <rect x="999" y="420" width="4" height="72" fill="#8a8a9a"/>
    <path d="M1001 420 Q1001 406 1017 404" stroke="#8a8a9a" stroke-width="3" fill="none"/>
    <ellipse cx="1018" cy="403" rx="7" ry="5" fill="#fffde7" opacity="0.9" filter="url(#glow)"/>
    <ellipse cx="1018" cy="403" rx="14" ry="8" fill="#ffd700" opacity="0.12"/>
  </g>

  <!-- Ground window glow (ambient light from buildings) -->
  <rect x="0" y="485" width="1200" height="6" fill="#1a4a8a" opacity="0.08"/>
</svg>
