<svg xmlns="http://www.w3.org/2000/svg" width="64" height="64" viewBox="0 0 64 64">
  <!-- Shadow -->
  <ellipse cx="32" cy="62" rx="13" ry="3" fill="#000" opacity="0.25"/>
  <!-- Legs -->
  <rect x="22" y="46" width="9" height="14" rx="2" fill="#102040"/>
  <rect x="33" y="46" width="9" height="14" rx="2" fill="#102040"/>
  <!-- Shoes -->
  <ellipse cx="26" cy="60" rx="7" ry="3" fill="#0a0a0a"/>
  <ellipse cx="38" cy="60" rx="7" ry="3" fill="#0a0a0a"/>
  <!-- Suit body -->
  <rect x="18" y="28" width="28" height="20" rx="3" fill="#1a3a6e"/>
  <!-- Shirt -->
  <rect x="28" y="28" width="8" height="16" fill="#f0f4ff"/>
  <!-- Tie -->
  <polygon points="30,29 34,29 33.5,42 32,44 30.5,42" fill="#c62828"/>
  <!-- Lapels -->
  <polygon points="28,28 18,34 18,28" fill="#122958"/>
  <polygon points="36,28 46,34 46,28" fill="#122958"/>
  <!-- Belt -->
  <rect x="18" y="46" width="28" height="3" fill="#080f1a"/>
  <rect x="28" y="46" width="8" height="3" fill="#ffd700"/>
  <!-- Left arm -->
  <rect x="8" y="28" width="10" height="5" rx="2" fill="#1a3a6e"/>
  <ellipse cx="11" cy="35" rx="4.5" ry="4" fill="#FFCC80"/>
  <!-- Right arm + briefcase -->
  <rect x="46" y="28" width="10" height="5" rx="2" fill="#1a3a6e"/>
  <rect x="47" y="33" width="14" height="10" rx="2" fill="#7a5c0a"/>
  <path d="M50 33 Q50 29 54 29 Q58 29 58 33" stroke="#7a5c0a" stroke-width="2" fill="none"/>
  <line x1="47" y1="38" x2="61" y2="38" stroke="#5a3e00" stroke-width="1"/>
  <!-- Neck -->
  <rect x="28" y="23" width="8" height="7" fill="#FFCC80"/>
  <!-- Head -->
  <circle cx="32" cy="16" r="13" fill="#FFCC80"/>
  <!-- Hair - slick dark -->
  <ellipse cx="32" cy="6" rx="11" ry="5" fill="#2e1c0e"/>
  <ellipse cx="32" cy="10" rx="12" ry="5" fill="#3e2c1c"/>
  <!-- Ears -->
  <ellipse cx="19" cy="16" rx="3" ry="4" fill="#f0b870"/>
  <ellipse cx="45" cy="16" rx="3" ry="4" fill="#f0b870"/>
  <!-- Eyes -->
  <circle cx="27" cy="16" r="2.5" fill="#1a1a1a"/>
  <circle cx="37" cy="16" r="2.5" fill="#1a1a1a"/>
  <circle cx="28" cy="15" r="1" fill="#fff"/>
  <circle cx="38" cy="15" r="1" fill="#fff"/>
  <!-- Eyebrows -->
  <rect x="23.5" y="11.5" width="7" height="1.8" rx="1" fill="#2e1c0e"/>
  <rect x="33.5" y="11.5" width="7" height="1.8" rx="1" fill="#2e1c0e"/>
  <!-- Smile -->
  <path d="M26 22 Q32 27 38 22" stroke="#b06030" stroke-width="1.8" fill="none" stroke-linecap="round"/>
  <!-- Gold star badge -->
  <circle cx="22" cy="34" r="4" fill="#ffd700"/>
  <text x="22" y="37" fill="#5a3e00" font-size="5" text-anchor="middle" font-family="Arial" font-weight="bold">★</text>
</svg>
